<svg width="1024" height="1024" viewBox="0 0 1024 1024" fill="none" xmlns="http://www.w3.org/2000/svg">
<g clip-path="url(#clip0_15_8)">
<rect width="1024" height="1024" fill="white"/>
<g clip-path="url(#clip1_15_8)">
<path d="M1024 0H0V1024H1024V0Z" fill="#FFFDF5"/>
<path d="M279.488 471.035C278.98 481.28 278.98 490.96 278.98 500.64C278.98 507.47 278.98 513.736 279.488 520.001V522.287C279.488 539.926 266.111 549.042 252.733 549.042C240.908 549.042 228.547 541.648 226.514 526.859C221.886 495.56 191.039 493.274 181.782 493.274C144.246 493.274 108.234 527.424 108.234 584.913C108.234 615.647 123.671 673.701 184.886 673.701C206.476 673.701 228.095 664.585 239.412 647.511C245.593 638.395 253.298 634.415 261.002 634.415C275.396 634.415 289.282 648.075 289.282 664.021C289.282 690.212 243.504 728.905 185.394 728.905C91.7799 728.905 56.8121 648.075 56.8121 587.199C56.8121 508.091 108.77 440.921 180.766 440.921C195.667 440.921 210.597 443.772 223.974 450.602C225.527 451.166 227.051 451.731 228.603 451.731C230.663 451.731 232.723 450.602 234.784 448.88C239.92 444.901 246.101 442.615 252.79 442.615C266.167 442.615 279.545 451.731 279.545 470.499V471.063L279.488 471.035ZM646.692 443.687C679.007 444.167 692.3 460.847 692.3 496.125V498.072C691.397 565.693 690.522 601.96 690.522 626.457C690.522 630.38 691.848 635.262 698.057 635.77C714.426 635.29 723.288 647.031 723.288 659.788C723.288 672.544 715.33 684.285 698.932 684.285H698.057C688.772 683.805 673.25 683.805 659.534 683.805C648.894 683.805 639.608 683.805 634.303 684.285C615.252 685.273 609.072 671.048 609.072 660.267C609.072 648.019 617.03 635.77 632.553 635.77H639.637C645.394 635.77 647.172 634.303 647.172 625.497C647.624 602.947 648.047 573.06 648.047 539.249V514.752C648.047 501.036 646.721 495.645 635.657 495.645H631.226C617.51 495.645 610.85 483.396 610.85 470.668C610.85 457.94 617.934 443.715 632.553 443.715H646.721L646.692 443.687ZM630.295 344.711C630.295 320.693 648.894 311.38 661.283 311.38C677.229 311.38 692.272 326.084 692.272 344.711C692.272 362.35 680.305 379.509 661.283 379.509C644.011 379.509 630.295 367.26 630.295 344.711ZM449.332 440.667C397.656 440.667 358.258 483.453 358.258 541.845C358.258 600.238 397.656 643.023 449.332 643.023C501.007 643.023 540.039 602.242 540.039 541.845C540.039 481.449 501.007 440.667 449.332 440.667ZM449.332 605.826C419.331 605.826 394.749 581.018 394.749 541.845C394.749 502.672 419.698 477.046 449.332 477.046C472.672 477.046 492.795 492.71 500.33 518.675C495.73 514.441 489.718 511.958 482.973 511.958C467.705 511.958 456.077 524.601 456.077 541.817C456.077 559.033 467.705 571.677 482.973 571.677C489.634 571.677 495.589 569.362 500.189 565.298C492.597 590.614 472.757 605.798 449.304 605.798L449.332 605.826ZM883.367 440.667C831.691 440.667 792.293 483.453 792.293 541.845C792.293 600.238 831.691 643.023 883.367 643.023C935.042 643.023 974.074 602.242 974.074 541.845C974.074 481.449 935.042 440.667 883.367 440.667ZM883.367 605.826C853.366 605.826 828.784 581.018 828.784 541.845C828.784 502.672 853.733 477.046 883.367 477.046C906.707 477.046 926.83 492.71 934.365 518.675C929.765 514.441 923.753 511.958 917.008 511.958C901.74 511.958 890.112 524.601 890.112 541.817C890.112 559.033 901.74 571.677 917.008 571.677C923.669 571.677 929.624 569.362 934.224 565.298C926.632 590.614 906.792 605.798 883.339 605.798L883.367 605.826ZM501.656 213.363L404.853 116.559C389.895 101.601 365.652 101.601 350.694 116.559C335.736 131.517 335.736 155.76 350.694 170.718L447.497 267.522C462.455 282.48 486.698 282.48 501.656 267.522C516.614 252.564 516.614 228.321 501.656 213.363ZM717.108 200.409L620.304 103.605C605.346 88.6471 581.103 88.6471 566.145 103.605C551.187 118.563 551.187 142.806 566.145 157.764L662.948 254.568C677.906 269.526 702.15 269.526 717.108 254.568C732.066 239.61 732.066 215.367 717.108 200.409ZM932.587 200.409L835.784 103.605C820.826 88.6471 796.582 88.6471 781.625 103.605C766.667 118.563 766.667 142.806 781.625 157.764L878.428 254.568C893.386 269.526 917.629 269.526 932.587 254.568C947.545 239.61 947.545 215.367 932.587 200.409ZM194.397 373.385C220.926 352.669 177.689 295.067 205.968 243.617C234.727 191.293 311.888 191.942 310.082 181.725C308.191 170.944 219.91 154.744 161.32 203.965C117.208 240.993 89.6067 315.331 120.002 353.573C137.754 375.897 176.448 387.411 194.397 373.413V373.385ZM790.656 769.573C746.572 741.69 685.103 834.852 595.271 820.487C503.886 805.868 464.544 692.949 450.545 700.908C435.813 709.29 458.307 846.537 560.698 906.34C637.774 951.355 760.683 952.766 800.562 888.475C823.874 850.911 820.431 788.426 790.628 769.573H790.656Z" fill="#4F4D9E"/>
</g>
</g>
<defs>
<clipPath id="clip0_15_8">
<rect width="1024" height="1024" fill="white"/>
</clipPath>
<clipPath id="clip1_15_8">
<rect width="1024" height="1024" fill="white"/>
</clipPath>
</defs>
</svg>
